<?xml version="1.0" standalone="no"?>
<!DOCTYPE svg PUBLIC "-//W3C//DTD SVG 20010904//EN"
 "http://www.w3.org/TR/2001/REC-SVG-20010904/DTD/svg10.dtd">
<svg version="1.0" xmlns="http://www.w3.org/2000/svg"
 width="512.000000pt" height="512.000000pt" viewBox="0 0 512.000000 512.000000"
 preserveAspectRatio="xMidYMid meet">
<metadata>
Created by potrace 1.11, written by Peter Selinger 2001-2013
</metadata>
<g transform="translate(0.000000,512.000000) scale(0.100000,-0.100000)"
fill="#000000" stroke="none">
<path d="M2378 5115 c-1 -1 -34 -5 -73 -9 -38 -3 -97 -10 -130 -16 -33 -6 -76
-13 -95 -16 -106 -17 -413 -105 -434 -125 -6 -5 -16 -9 -23 -9 -29 0 -251
-109 -387 -190 -239 -143 -500 -370 -661 -575 -16 -21 -34 -43 -40 -49 -84
-96 -246 -369 -323 -546 -60 -140 -130 -349 -146 -440 -2 -14 -7 -36 -10 -50
-44 -189 -65 -558 -44 -780 21 -217 83 -475 165 -685 37 -93 123 -273 161
-335 12 -19 29 -48 38 -65 19 -35 138 -207 156 -227 7 -7 29 -34 48 -58 145
-188 401 -412 633 -556 278 -172 646 -310 936 -350 20 -3 79 -11 131 -18 89
-12 496 -14 560 -2 14 2 45 7 70 10 36 5 167 30 272 51 9 2 41 11 70 21 l54
16 119 -40 c66 -22 140 -43 165 -47 25 -4 54 -9 65 -12 38 -9 305 -11 343 -3
20 5 53 10 72 13 19 3 62 12 96 21 450 118 802 475 913 925 28 113 34 163 36
304 2 112 -4 169 -30 302 -3 17 -22 75 -41 131 l-34 101 29 119 c16 65 32 135
35 154 3 19 8 49 11 65 24 140 29 217 30 410 0 236 -11 348 -54 545 -29 134
-54 220 -94 330 -205 559 -590 1024 -1102 1332 -66 39 -298 158 -310 158 -4 0
-21 6 -38 14 -93 43 -368 123 -477 140 -19 3 -44 8 -56 10 -12 2 -45 7 -74 11
-29 4 -62 9 -74 12 -23 5 -452 13 -458 8z"/>
</g>
</svg>
